<?xml version="1.0" encoding="utf-8"?>
<!-- Generator: Adobe Illustrator 24.0.1, SVG Export Plug-In . SVG Version: 6.00 Build 0)  -->
<svg version="1.1" id="Calque_1" xmlns="http://www.w3.org/2000/svg" xmlns:xlink="http://www.w3.org/1999/xlink" x="0px" y="0px"
	 viewBox="0 0 141.73 56.69" style="enable-background:new 0 0 141.73 56.69;" xml:space="preserve">
<style type="text/css">
	.st0{fill:#C1B3A1;}
	.st1{fill:#030304;}
	.st2{stroke:#000000;stroke-width:0.25;stroke-miterlimit:10;}
	.st3{font-family:'ComicSansMS-Bold';}
	.st4{font-size:3.9511px;}
</style>
<g>
	<path class="st0" d="M49.52,24.97c-1.49-2.26-3.34-4.39-5.51-6.36c2.71,0.8,5.57,1.37,8.49,1.68c-1.97-3.1-3.94-6.2-5.91-9.29
		c3.54,2.01,7.51,3.66,11.73,4.87c0.93,0.27,1.95,0.51,2.91,0.33c0.83-0.16,1.48-0.61,2.08-1.04c2.39-1.73,4.78-3.46,7.17-5.19
		c2.24,2.55,5.48,4.67,9.27,6.07c1.55-1.6,2.67-3.41,3.29-5.29c1.17,2.35,2.83,4.58,4.91,6.6c2.94-2.37,5.88-4.74,8.82-7.11
		c0.66,2.53,0.85,5.11,0.56,7.67c6.49-0.3,12.89-1.5,18.72-3.51c-3.61,2.73-7.37,5.36-11.28,7.88c5.28,1.1,10.56,2.21,15.84,3.31
		c-3.57,1.24-7.15,2.48-10.72,3.72c2.09,1.47,4.5,2.72,7.12,3.69c-4.23,0.38-8.46,0.77-12.69,1.15c2.08,3.26,5.11,6.23,8.86,8.67
		c-5-2.36-10.4-4.33-16.04-5.84c0.23,2.92,0.47,5.84,0.71,8.75c-2.58-1.96-5.15-3.91-7.73-5.87c-0.55-0.42-1.18-0.86-1.99-0.89
		c-0.91-0.03-1.65,0.47-2.26,0.94c-2.8,2.13-5.6,4.26-8.4,6.38c-2.83-1.5-5.09-3.53-6.48-5.82c-4.62,6.08-12.12,11.07-21.05,14.02
		c0.11-5.04,1.95-10.05,5.33-14.5c-1.68,0.74-3.59,1.23-5.56,1.44c-0.4-1.95-0.16-3.96,0.69-5.83c-3.65,1.3-7.67,2.11-11.76,2.35
		c2.61-2.61,5.67-5,9.08-7.12c-4.05-1.42-8.11-2.84-12.17-4.26c4.4-0.08,8.77-0.79,12.77-2.05"/>
	<g>
		<path class="st1" d="M49.95,24.79c-1.52-2.3-3.41-4.45-5.59-6.44c-0.16,0.2-0.32,0.41-0.48,0.61c2.73,0.8,5.58,1.36,8.49,1.68
			c0.44,0.05,0.75-0.23,0.56-0.53c-1.97-3.1-3.94-6.2-5.91-9.3c-0.26,0.15-0.52,0.29-0.78,0.44c3.04,1.72,6.34,3.18,9.86,4.33
			c0.85,0.28,1.71,0.55,2.59,0.78c0.87,0.23,1.84,0.37,2.75,0.18c0.8-0.17,1.45-0.57,2.04-0.99c0.75-0.53,1.48-1.07,2.22-1.61
			c1.71-1.24,3.43-2.48,5.14-3.72c-0.26-0.02-0.52-0.05-0.78-0.07c2.34,2.64,5.63,4.78,9.45,6.2c0.25,0.09,0.52,0.04,0.68-0.13
			c1.55-1.62,2.69-3.45,3.35-5.37c-0.32,0-0.64,0-0.96,0c1.2,2.4,2.87,4.65,4.96,6.69c0.18,0.18,0.54,0.26,0.78,0.07
			c2.94-2.37,5.88-4.74,8.82-7.11c-0.28-0.05-0.55-0.11-0.83-0.16c0.64,2.5,0.82,5.04,0.55,7.58c-0.02,0.19,0.24,0.38,0.5,0.36
			c6.56-0.31,13.01-1.51,18.97-3.56c-0.2-0.19-0.4-0.38-0.6-0.57c-3.62,2.73-7.38,5.36-11.28,7.88c-0.29,0.19-0.12,0.54,0.22,0.61
			c5.28,1.1,10.56,2.21,15.84,3.31c-0.04-0.22-0.08-0.44-0.12-0.67c-3.57,1.24-7.15,2.48-10.72,3.72c-0.29,0.1-0.32,0.42-0.1,0.57
			c2.14,1.5,4.58,2.76,7.22,3.75c0.08-0.23,0.17-0.45,0.25-0.68c-4.23,0.38-8.46,0.77-12.69,1.15c-0.39,0.03-0.6,0.28-0.43,0.55
			c2.13,3.32,5.2,6.3,8.94,8.74c0.2-0.19,0.4-0.38,0.6-0.57c-5.07-2.39-10.5-4.35-16.15-5.88c-0.29-0.08-0.65,0.13-0.63,0.35
			c0.23,2.92,0.47,5.84,0.71,8.75c0.28-0.08,0.57-0.17,0.85-0.26c-1.41-1.07-2.81-2.13-4.22-3.2c-0.68-0.52-1.37-1.04-2.05-1.56
			c-0.66-0.5-1.28-1.03-1.99-1.49c-0.58-0.37-1.27-0.66-2.07-0.61c-0.78,0.05-1.44,0.39-2,0.78c-1.4,0.97-2.7,2.04-4.04,3.06
			c-1.58,1.2-3.15,2.39-4.73,3.59c0.2-0.02,0.4-0.04,0.6-0.06c-2.73-1.46-4.91-3.43-6.3-5.69c-0.16-0.25-0.69-0.22-0.86,0
			c-3.63,4.76-8.95,8.77-15.23,11.67c-1.81,0.83-3.69,1.57-5.63,2.22c0.25,0.1,0.5,0.21,0.75,0.32c0.1-3.88,1.21-7.74,3.27-11.32
			c0.59-1.03,1.26-2.03,2-3c0.24-0.31-0.24-0.69-0.68-0.5c-1.68,0.73-3.52,1.19-5.44,1.4c0.21,0.08,0.41,0.17,0.61,0.25
			c-0.38-1.89-0.12-3.83,0.69-5.64c0.15-0.33-0.37-0.54-0.73-0.41c-3.6,1.28-7.52,2.06-11.5,2.3c0.14,0.18,0.28,0.36,0.43,0.55
			c2.61-2.6,5.65-4.96,9-7.04c0.23-0.14,0.18-0.48-0.1-0.57c-4.05-1.42-8.11-2.84-12.17-4.26c-0.08,0.23-0.17,0.45-0.25,0.68
			c4.48-0.09,8.9-0.81,13.02-2.1c0.59-0.18,0.08-0.81-0.5-0.63c-3.96,1.24-8.22,1.91-12.52,2c-0.46,0.01-0.72,0.51-0.25,0.68
			c4.05,1.42,8.11,2.84,12.17,4.26c-0.03-0.19-0.07-0.38-0.1-0.57c-3.42,2.13-6.49,4.54-9.16,7.19c-0.22,0.22,0.07,0.57,0.43,0.55
			c4.17-0.26,8.24-1.06,12-2.4c-0.24-0.14-0.49-0.27-0.73-0.41c-0.87,1.95-1.1,4-0.69,6.03c0.04,0.21,0.37,0.28,0.61,0.25
			c2.01-0.22,3.94-0.72,5.68-1.48c-0.23-0.17-0.45-0.33-0.68-0.5c-2.63,3.49-4.36,7.33-5.06,11.29c-0.2,1.13-0.31,2.26-0.34,3.4
			c-0.01,0.3,0.42,0.42,0.75,0.32c6.93-2.3,13.07-5.83,17.71-10.25c1.3-1.24,2.47-2.54,3.51-3.9c-0.28,0-0.57,0-0.86,0
			c1.46,2.38,3.79,4.41,6.66,5.95c0.17,0.09,0.46,0.05,0.6-0.06c2.6-1.98,5.21-3.96,7.82-5.94c0.53-0.4,1.04-0.87,1.72-1.14
			c0.71-0.28,1.37-0.07,1.93,0.3c0.65,0.42,1.22,0.91,1.82,1.37c0.65,0.49,1.29,0.98,1.93,1.47c1.48,1.13,2.97,2.25,4.45,3.38
			c0.29,0.22,0.87,0.06,0.85-0.26c-0.23-2.92-0.47-5.84-0.71-8.75c-0.21,0.12-0.42,0.23-0.63,0.35c5.58,1.5,10.92,3.45,15.92,5.8
			c0.47,0.22,1.03-0.3,0.6-0.57c-3.68-2.41-6.68-5.32-8.78-8.59c-0.14,0.18-0.28,0.36-0.43,0.55c4.23-0.38,8.46-0.77,12.69-1.15
			c0.44-0.04,0.74-0.5,0.25-0.68c-2.57-0.96-4.94-2.17-7.02-3.63c-0.03,0.19-0.07,0.38-0.1,0.57c3.57-1.24,7.15-2.48,10.72-3.72
			c0.4-0.14,0.27-0.59-0.12-0.67c-5.28-1.1-10.56-2.21-15.84-3.31c0.07,0.2,0.15,0.41,0.22,0.61c3.9-2.52,7.66-5.15,11.28-7.88
			c0.41-0.31-0.11-0.74-0.6-0.57c-5.79,1.99-12.09,3.16-18.47,3.46c0.17,0.12,0.33,0.24,0.5,0.36c0.28-2.6,0.08-5.21-0.58-7.77
			C97.19,9.9,96.67,9.81,96.43,10c-2.94,2.37-5.88,4.74-8.82,7.11c0.26,0.02,0.52,0.05,0.78,0.07c-2.04-1.99-3.69-4.18-4.87-6.51
			c-0.16-0.32-0.83-0.37-0.96,0c-0.63,1.87-1.74,3.62-3.24,5.2c0.23-0.04,0.45-0.09,0.68-0.13c-3.67-1.37-6.85-3.41-9.09-5.94
			c-0.17-0.2-0.54-0.25-0.78-0.07c-1.41,1.02-2.83,2.05-4.24,3.07c-0.7,0.5-1.39,1.01-2.09,1.51c-0.62,0.45-1.22,0.97-1.96,1.31
			c-0.8,0.37-1.65,0.33-2.53,0.13c-0.85-0.19-1.68-0.46-2.5-0.72c-1.65-0.53-3.26-1.13-4.82-1.79c-1.75-0.75-3.44-1.58-5.05-2.49
			c-0.44-0.25-1.03,0.05-0.78,0.44c1.97,3.1,3.94,6.2,5.91,9.29c0.19-0.18,0.37-0.36,0.56-0.53c-2.91-0.32-5.76-0.88-8.49-1.68
			c-0.51-0.15-0.75,0.36-0.48,0.61c2.13,1.94,3.95,4.05,5.43,6.29C49.37,25.58,50.22,25.21,49.95,24.79L49.95,24.79z"/>
	</g>
</g>
<text transform="matrix(1.7866 0 0 1 67.1703 24.8576)"><tspan x="0" y="0" class="st2 st3 st4">BULLE</tspan><tspan x="3.45" y="4.74" class="st2 st3 st4">DE</tspan><tspan x="-1.53" y="9.48" class="st2 st3 st4">GOMME</tspan></text>
</svg>
